<svg width="635.09" height="141.73" viewBox="0 0 635.09 141.73" xmlns="http://www.w3.org/2000/svg" xmlns:xlink="http://www.w3.org/1999/xlink" xml:space="preserve" overflow="hidden"><style>
.MsftOfcThm_Background1_Fill_v2 {
 fill:#FFFFFF; 
}
</style>
<defs></defs><g><path d="M209.73 101.97 209.73 28.32 198.4 28.32 198.4 113.31 256.76 113.31 256.76 101.97Z" class="MsftOfcThm_Background1_Fill_v2" fill="#FFFFFF"/><path d="M283.39 28.32 294.72 28.32 294.72 113.3 283.39 113.3 283.39 28.32Z" class="MsftOfcThm_Background1_Fill_v2" fill="#FFFFFF"/><rect x="336.07" y="28.32" width="11.33" height="84.98" class="MsftOfcThm_Background1_Fill_v2" fill="#FFFFFF"/><rect x="393.75" y="28.32" width="11.33" height="84.98" class="MsftOfcThm_Background1_Fill_v2" fill="#FFFFFF"/><path d="M405.08 113.31 391.69 113.31 336.07 28.32 349.46 28.32Z" class="MsftOfcThm_Background1_Fill_v2" fill="#FFFFFF"/><g><path d="M516.75 65.14 474.6 65.14 474.6 76.49 505.25 76.49 516.78 76.49C517.02 74.65 517.15 72.78 517.15 70.87 517.15 68.93 517.01 67.02 516.75 65.14Z" class="MsftOfcThm_Background1_Fill_v2" fill="#FFFFFF"/><path d="M505.24 76.49C502.63 91.13 489.92 102.13 474.61 102.02 457.36 102.13 443.41 88.18 443.52 70.93 443.41 53.68 457.36 39.73 474.61 39.73 483.23 39.73 490.95 43.25 496.62 48.92L504.79 40.75C497.07 33.15 486.41 28.38 474.61 28.38 451.12 28.27 432.06 47.33 432.17 70.93 432.06 94.42 451.12 113.48 474.61 113.36 496.23 113.47 514.12 97.38 516.79 76.49L505.24 76.49Z" class="MsftOfcThm_Background1_Fill_v2" fill="#FFFFFF"/></g><g><path d="M561.14 28.32 547.65 28.32 575.64 70.81 547.65 113.31 561.14 113.31 589.01 70.81Z" class="MsftOfcThm_Background1_Fill_v2" fill="#FFFFFF"/><path d="M621.61 28.32 635.09 28.32 607.1 70.81 635.09 113.31 621.61 113.31 593.73 70.81Z" class="MsftOfcThm_Background1_Fill_v2" fill="#FFFFFF"/></g></g><g><path d="M136.19 70.89 136.19 70.89C136.19 77.52 130.77 82.94 124.14 82.94L87.29 82.94C80.66 82.94 75.24 77.52 75.24 70.89L75.24 70.89C75.24 64.26 80.66 58.84 87.29 58.84L124.14 58.84C130.77 58.84 136.19 64.26 136.19 70.89Z" class="MsftOfcThm_Background1_Fill_v2" fill="#FFFFFF"/><path d="M103.92 99.21C81.46 99.21 63.86 86.76 63.86 70.86 63.86 54.96 81.46 42.51 103.92 42.51 121.17 42.51 135.54 49.85 141.28 60.46 141.41 60.7 141.77 60.58 141.73 60.31 136.61 26.18 107.01 0 71.26 0 31.9 0 0 31.73 0 70.87 0 110.01 31.9 141.74 71.26 141.74 106.93 141.74 136.47 115.68 141.7 81.66 141.75 81.34 141.33 81.2 141.17 81.48 135.34 91.97 121.05 99.21 103.92 99.21Z" class="MsftOfcThm_Background1_Fill_v2" fill="#FFFFFF"/></g></svg>