<svg xmlns="http://www.w3.org/2000/svg" viewBox="0 0 635.09 141.73"><defs><style>.a2d22eeb-2907-4e49-ac9e-0136d50130a8{fill:#fff;}</style></defs><g id="b65f8137-93d4-442e-875b-79a370c95dbb" data-name="图层 2"><g id="af380d96-a1ee-45d5-928c-1b0c9836e42e" data-name="图层 1"><polygon class="a2d22eeb-2907-4e49-ac9e-0136d50130a8" points="209.73 101.97 209.73 28.32 198.4 28.32 198.4 113.31 256.76 113.31 256.76 101.97 209.73 101.97"/><path class="a2d22eeb-2907-4e49-ac9e-0136d50130a8" d="M283.39,28.32h11.33v85H283.39Z"/><rect class="a2d22eeb-2907-4e49-ac9e-0136d50130a8" x="336.07" y="28.32" width="11.33" height="84.98"/><rect class="a2d22eeb-2907-4e49-ac9e-0136d50130a8" x="393.75" y="28.32" width="11.33" height="84.98"/><polygon class="a2d22eeb-2907-4e49-ac9e-0136d50130a8" points="405.08 113.31 391.69 113.31 336.07 28.32 349.46 28.32 405.08 113.31"/><path class="a2d22eeb-2907-4e49-ac9e-0136d50130a8" d="M516.75,65.14H474.6V76.49h42.18a43.36,43.36,0,0,0,.37-5.62A41.78,41.78,0,0,0,516.75,65.14Z"/><path class="a2d22eeb-2907-4e49-ac9e-0136d50130a8" d="M505.24,76.49a31.26,31.26,0,1,1-8.63-27.57l8.17-8.17A42.91,42.91,0,0,0,474.6,28.38a42.49,42.49,0,1,0,42.18,48.11Z"/><polygon class="a2d22eeb-2907-4e49-ac9e-0136d50130a8" points="561.14 28.32 547.65 28.32 575.64 70.81 547.65 113.31 561.14 113.31 589.01 70.81 561.14 28.32"/><polygon class="a2d22eeb-2907-4e49-ac9e-0136d50130a8" points="621.61 28.32 635.09 28.32 607.1 70.81 635.09 113.31 621.61 113.31 593.73 70.81 621.61 28.32"/><rect class="a2d22eeb-2907-4e49-ac9e-0136d50130a8" x="93.67" y="40.41" width="24.09" height="60.94" rx="12.05" transform="translate(34.83 176.61) rotate(-90)"/><path class="a2d22eeb-2907-4e49-ac9e-0136d50130a8" d="M103.92,99.21c-22.47,0-40.06-12.45-40.06-28.34s17.59-28.35,40.06-28.35c17.24,0,31.61,7.34,37.36,17.95a.24.24,0,0,0,.45-.15A71.14,71.14,0,0,0,71.26,0C31.9,0,0,31.73,0,70.87s31.9,70.86,71.26,70.86a71.15,71.15,0,0,0,70.43-60.07.28.28,0,0,0-.53-.18C135.34,92,121.05,99.21,103.92,99.21Z"/></g></g></svg>